<svg xmlns="http://www.w3.org/2000/svg" width="150" height="150" fill="none"><g clip-path="url(#a)"><path fill="#F0DB4F" d="M0 0h150v150H0V0Z"/><path fill="#323330" d="M137.723 114.225c-1.098-6.844-5.56-12.59-18.778-17.951-4.591-2.11-9.71-3.622-11.236-7.101-.542-2.025-.613-3.165-.271-4.392.984-3.978 5.732-5.218 9.496-4.078 2.424.813 4.72 2.681 6.103 5.661 6.473-4.192 6.459-4.163 10.979-7.044-1.654-2.566-2.538-3.75-3.622-4.847-3.892-4.35-9.196-6.588-17.68-6.417-1.469.186-2.952.385-4.42.57-4.235 1.07-8.27 3.294-10.637 6.274-7.1 8.056-5.076 22.158 3.564 27.961 8.513 6.388 21.018 7.843 22.615 13.817 1.554 7.315-5.376 9.681-12.263 8.84-5.076-1.055-7.899-3.636-10.95-8.327-5.618 3.251-5.618 3.251-11.393 6.573 1.369 2.995 2.809 4.349 5.105 6.944 10.865 11.022 38.056 10.48 42.932-6.202.2-.571 1.512-4.392.456-10.281ZM81.545 68.94h-14.03c0 12.12-.058 24.154-.058 36.274 0 7.714.4 14.786-.855 16.953-2.053 4.263-7.372 3.736-9.796 2.909-2.466-1.212-3.721-2.937-5.176-5.375-.399-.699-.698-1.241-.798-1.284-3.807 2.324-7.6 4.663-11.407 6.987 1.896 3.893 4.691 7.272 8.27 9.468 5.347 3.208 12.533 4.192 20.048 2.466 4.89-1.426 9.11-4.377 11.32-8.868 3.195-5.889 2.51-13.018 2.482-20.903.071-12.862 0-25.723 0-38.627Z"/></g><defs><clipPath id="a"><path fill="#fff" d="M0 0h150v150H0z"/></clipPath></defs></svg>