<svg xmlns="http://www.w3.org/2000/svg" width="150" height="172" fill="none"><g clip-path="url(#a)"><path fill="#1B73BA" d="M12.56 153.787 0 .288l150 .309-13.281 153.19-61.153 17.707-63.006-17.707Z"/><path fill="#1C88C7" d="M75.566 156.669V14.907l61.771.206-11.015 126.834-50.756 14.722Z"/><path fill="#fff" d="M121.997 33.027H26.973l2.575 18.53h45.091L30.27 70.603l2.573 17.913h65.374l-2.368 25.016-22.135 4.325-20.075-5.147-1.544-14.208H33.665l2.47 29.547 39.534 11.016 37.887-12.045 4.839-57.756h-40.05l43.651-18.119.001-18.118Z"/></g><defs><clipPath id="a"><path fill="#fff" d="M0 0h150v171.782H0z"/></clipPath></defs></svg>