<svg xmlns="http://www.w3.org/2000/svg" width="150" height="113" fill="none"><g clip-path="url(#a)"><path fill="#CF649A" d="M129.082 64.629c-5.244.03-9.785 1.289-13.594 3.164-1.406-2.783-2.812-5.215-3.046-7.031-.264-2.11-.586-3.399-.264-5.918.322-2.52 1.787-6.094 1.787-6.387-.03-.264-.323-1.553-3.34-1.582-3.017-.03-5.625.586-5.918 1.377a33.656 33.656 0 0 0-1.26 4.482c-.527 2.754-6.035 12.51-9.17 17.637-1.025-1.992-1.904-3.75-2.08-5.156-.263-2.11-.586-3.399-.263-5.918.322-2.52 1.787-6.094 1.787-6.387-.03-.263-.323-1.553-3.34-1.582-3.018-.03-5.625.586-5.918 1.377-.293.791-.615 2.666-1.26 4.483-.615 1.816-7.94 18.105-9.844 22.353a90.423 90.423 0 0 1-2.431 5.068c-.615 1.172-.03.088-.088.206-.528.996-.82 1.552-.82 1.552v.03c-.41.732-.85 1.435-1.055 1.435-.147 0-.44-1.963.058-4.658 1.084-5.655 3.72-14.473 3.692-14.795 0-.146.498-1.7-1.7-2.49-2.138-.791-2.9.527-3.076.527-.176 0-.322.47-.322.47s2.373-9.932-4.541-9.932c-4.336 0-10.313 4.716-13.272 9.023-1.875 1.025-5.859 3.193-10.078 5.508-1.611.879-3.281 1.816-4.863 2.666l-.322-.352c-8.379-8.936-23.877-15.264-23.232-27.276.234-4.365 1.757-15.879 29.766-29.824 22.939-11.426 41.308-8.29 44.501-1.318 4.541 9.96-9.814 28.476-33.662 31.142-9.082 1.026-13.857-2.49-15.058-3.808-1.26-1.377-1.436-1.436-1.904-1.172-.762.41-.294 1.64 0 2.373.703 1.846 3.632 5.127 8.613 6.768 4.365 1.435 15.029 2.226 27.92-2.754 14.443-5.596 25.722-21.123 22.412-34.102C90.527.615 68.614-3.72 47.9 3.633c-12.335 4.394-25.694 11.25-35.303 20.244C1.172 34.541-.645 43.857.118 47.725c2.666 13.798 21.679 22.793 29.296 29.443-.38.205-.732.41-1.055.586-3.808 1.875-18.31 9.463-21.943 17.49-4.102 9.082.645 15.615 3.809 16.494 9.785 2.725 19.804-2.168 25.224-10.224 5.39-8.057 4.746-18.516 2.256-23.291l-.088-.176 2.988-1.758a179.58 179.58 0 0 1 5.508-3.106c-.937 2.55-1.611 5.567-1.963 9.961-.41 5.157 1.7 11.836 4.483 14.473 1.23 1.142 2.695 1.172 3.603 1.172 3.223 0 4.688-2.666 6.3-5.86 1.991-3.896 3.75-8.408 3.75-8.408s-2.198 12.217 3.808 12.217c2.197 0 4.394-2.842 5.39-4.307v.03s.059-.088.176-.293c.123-.182.24-.368.352-.557v-.058c.879-1.524 2.841-5.01 5.771-10.781 3.78-7.442 7.412-16.758 7.412-16.758s.352 2.285 1.436 6.035c.644 2.227 2.05 4.658 3.134 7.031-.879 1.23-1.406 1.934-1.406 1.934l.03.03a83.3 83.3 0 0 1-2.315 2.929c-2.988 3.574-6.562 7.647-7.031 8.819-.557 1.376-.44 2.402.644 3.222.791.586 2.198.703 3.692.586 2.695-.176 4.57-.85 5.508-1.26a19.071 19.071 0 0 0 4.746-2.49c2.93-2.168 4.717-5.244 4.54-9.346-.087-2.255-.82-4.482-1.728-6.591.264-.381.528-.762.791-1.172 4.629-6.768 8.203-14.21 8.203-14.21s.352 2.286 1.436 6.036c.556 1.904 1.67 3.985 2.666 6.035-4.336 3.545-7.061 7.647-7.998 10.342-1.729 4.98-.381 7.237 2.168 7.764 1.142.234 2.783-.293 4.013-.82a18.186 18.186 0 0 0 5.069-2.608c2.93-2.168 5.742-5.185 5.596-9.258-.088-1.875-.586-3.72-1.26-5.478 3.691-1.524 8.466-2.403 14.531-1.67 13.037 1.523 15.615 9.668 15.118 13.066-.498 3.4-3.223 5.274-4.132 5.86-.908.556-1.201.762-1.113 1.172.117.615.528.586 1.319.469 1.084-.176 6.855-2.784 7.089-9.053.352-8.058-7.295-16.847-20.859-16.76ZM28.535 98.525c-4.306 4.717-10.37 6.504-12.95 4.981-2.782-1.611-1.699-8.555 3.604-13.565 3.223-3.047 7.413-5.859 10.166-7.588.616-.38 1.553-.937 2.667-1.61.175-.118.293-.177.293-.177.205-.117.439-.263.673-.41 1.963 7.149.088 13.418-4.453 18.37ZM60.03 77.11c-1.494 3.663-4.658 13.067-6.562 12.54-1.641-.44-2.637-7.56-.323-14.59 1.172-3.546 3.662-7.764 5.127-9.405 2.373-2.637 4.951-3.516 5.596-2.432.762 1.407-2.9 11.602-3.838 13.887Zm25.987 12.422c-.645.323-1.23.557-1.495.381-.205-.117.264-.556.264-.556s3.252-3.487 4.54-5.098c.733-.937 1.612-2.021 2.55-3.252v.352c0 4.218-4.043 7.03-5.86 8.173Zm20.038-4.57c-.468-.352-.409-1.436 1.172-4.834.616-1.348 2.022-3.604 4.453-5.742.293.879.469 1.728.44 2.52-.029 5.273-3.779 7.236-6.065 8.056Z"/></g><defs><clipPath id="a"><path fill="#fff" d="M0 0h150v112.5H0z"/></clipPath></defs></svg>