<svg xmlns="http://www.w3.org/2000/svg" width="150" height="225" fill="none"><g clip-path="url(#a)"><path fill="#0ACF83" d="M37.508 224.955c20.695 0 37.492-16.797 37.492-37.493V149.97H37.508c-20.696 0-37.493 16.797-37.493 37.492 0 20.696 16.797 37.493 37.492 37.493Z"/><path fill="#A259FF" d="M.015 112.477c0-20.695 16.797-37.492 37.492-37.492H75v74.985H37.508c-20.696 0-37.493-16.797-37.493-37.493Z"/><path fill="#F24E1E" d="M.015 37.492C.015 16.797 16.812 0 37.507 0H75v74.985H37.508C16.811 74.985.014 58.188.014 37.493Z"/><path fill="#FF7262" d="M75 0h37.493c20.695 0 37.492 16.797 37.492 37.492 0 20.696-16.797 37.493-37.492 37.493H75V0Z"/><path fill="#1ABCFE" d="M149.985 112.477c0 20.696-16.797 37.493-37.492 37.493C91.797 149.97 75 133.173 75 112.477c0-20.695 16.797-37.492 37.493-37.492 20.695 0 37.492 16.797 37.492 37.492Z"/></g><defs><clipPath id="a"><path fill="#fff" d="M0 0h150v224.955H0z"/></clipPath></defs></svg>