<svg xmlns="http://www.w3.org/2000/svg" width="150" height="150" fill="none"><g clip-path="url(#a)"><path fill="#DE4C36" d="M147.171 68.317 81.68 2.829c-3.77-3.772-9.887-3.772-13.66 0l-13.6 13.6L71.67 33.68c4.01-1.354 8.606-.446 11.802 2.75 3.211 3.216 4.114 7.853 2.726 11.875l16.626 16.626c4.022-1.386 8.664-.489 11.876 2.729 4.49 4.488 4.49 11.763 0 16.254-4.491 4.492-11.765 4.492-16.259 0-3.377-3.381-4.211-8.341-2.502-12.502L80.435 55.907l-.002 40.803c1.124.556 2.151 1.29 3.04 2.174 4.49 4.488 4.49 11.763 0 16.258-4.491 4.489-11.769 4.489-16.254 0-4.49-4.495-4.49-11.769 0-16.257a11.518 11.518 0 0 1 3.763-2.509V55.193a11.353 11.353 0 0 1-3.763-2.508c-3.402-3.398-4.22-8.39-2.476-12.567L47.736 23.11 2.83 68.014c-3.773 3.775-3.773 9.893 0 13.665l65.493 65.489c3.77 3.772 9.886 3.772 13.661 0l65.187-65.185c3.772-3.773 3.772-9.895 0-13.666Z"/></g><defs><clipPath id="a"><path fill="#fff" d="M0 0h150v150H0z"/></clipPath></defs></svg>