<svg xmlns="http://www.w3.org/2000/svg" width="150" height="146" fill="none"><g fill="#161614" clip-path="url(#a)"><path d="M74.71 0C33.454 0 0 33.448 0 74.71c0 33.009 21.407 61.014 51.091 70.893 3.734.691 5.105-1.621 5.105-3.595 0-1.781-.07-7.667-.101-13.909-20.785 4.519-25.171-8.815-25.171-8.815-3.398-8.636-8.295-10.931-8.295-10.931-6.778-4.637.51-4.542.51-4.542 7.503.527 11.454 7.699 11.454 7.699 6.663 11.421 17.477 8.119 21.74 6.211.67-4.83 2.607-8.125 4.743-9.991-16.593-1.889-34.038-8.295-34.038-36.922 0-8.156 2.919-14.821 7.698-20.053-.776-1.882-3.333-9.48.724-19.771 0 0 6.273-2.008 20.55 7.658 5.96-1.656 12.35-2.486 18.7-2.514 6.35.028 12.745.858 18.716 2.514 14.26-9.666 20.525-7.658 20.525-7.658 4.066 10.29 1.508 17.889.732 19.771 4.79 5.232 7.689 11.896 7.689 20.053 0 28.695-17.477 35.013-34.113 36.863 2.68 2.318 5.067 6.865 5.067 13.835 0 9.996-.087 18.041-.087 20.502 0 1.988 1.345 4.318 5.132 3.585 29.669-9.89 51.048-37.885 51.048-70.883C149.419 33.448 115.97 0 74.71 0Z"/><path d="M27.982 106.426c-.165.371-.75.482-1.28.228-.543-.244-.848-.75-.672-1.123.161-.382.746-.488 1.287-.232.543.244.853.755.665 1.127Zm3.675 3.279c-.357.331-1.053.177-1.526-.345-.489-.521-.58-1.217-.219-1.553.367-.33 1.043-.176 1.533.346.489.527.584 1.219.21 1.553m2.523 4.194c-.458.319-1.207.02-1.67-.644-.457-.664-.457-1.461.01-1.78.465-.32 1.202-.032 1.67.627.457.675.457 1.472-.01 1.798m4.263 4.859c-.41.451-1.281.33-1.92-.286-.653-.603-.835-1.458-.424-1.909.414-.453 1.291-.326 1.934.286.65.601.847 1.462.41 1.909Zm5.51 1.64c-.18.585-1.02.851-1.866.603-.845-.257-1.398-.942-1.227-1.533.175-.589 1.019-.866 1.872-.6.843.255 1.397.935 1.221 1.53Zm6.272.696c.021.616-.697 1.127-1.585 1.138-.893.02-1.616-.479-1.625-1.085 0-.622.701-1.128 1.594-1.143.888-.018 1.616.477 1.616 1.09Zm6.16-.236c.107.601-.51 1.218-1.392 1.382-.867.159-1.67-.212-1.78-.808-.109-.617.52-1.234 1.386-1.394.884-.153 1.674.208 1.787.82Z"/></g><defs><clipPath id="a"><path fill="#fff" d="M0 0h150v145.92H0z"/></clipPath></defs></svg>